<svg width="683" height="125" viewBox="0 0 683 125" fill="none" xmlns="http://www.w3.org/2000/svg">
<path d="M340.478 118.877C338.945 121.576 335.055 121.576 333.522 118.877L269.394 5.97556C267.88 3.30899 269.806 3.8629e-06 272.872 4.131e-06L401.128 1.53435e-05C404.194 1.56116e-05 406.121 3.30901 404.606 5.97558L340.478 118.877Z" fill="white"/>
<path fill-rule="evenodd" clip-rule="evenodd" d="M645.5 0H442C439.791 0 438 1.79086 438 4V75V121C438 123.209 439.791 125 442 125H676.221C679.266 125 681.195 121.732 679.722 119.066L657.253 78.3886C655.985 76.0944 657.24 73.2225 659.667 72.2317C673.355 66.6428 683 53.1978 683 37.5C683 16.7893 666.211 0 645.5 0Z" fill="white"/>
<path d="M0 5C0 2.23858 2.23858 0 5 0H195C222.614 0 245 22.3858 245 50V75C245 102.614 222.614 125 195 125H5C2.23857 125 0 122.761 0 120V5Z" fill="white"/>
</svg>
